<?xml version="1.0" encoding="utf-8"?>
<!-- Generator: Adobe Illustrator 27.5.0, SVG Export Plug-In . SVG Version: 6.00 Build 0)  -->
<svg version="1.1" xmlns="http://www.w3.org/2000/svg" xmlns:xlink="http://www.w3.org/1999/xlink" x="0px" y="0px"
	 viewBox="0 0 1122 1122" style="enable-background:new 0 0 1122 1122;" xml:space="preserve">
<g id="bg">
	<rect style="fill:#FFFFFF;" width="1122" height="1122"/>
</g>
<g id="Objects">
	<g>
		<g>
			<path style="fill:#FFFFFF;" d="M481.699,213.788c-96.876,24.862-133.585,87.013-133.585,87.013l18.383,19.609l18.383-14.706
				l11.03,17.157l9.805,4.902v6.127l8.578,6.128l2.451,19.609l17.157,1.226l6.128-24.511l29.413-19.609l7.353-8.579l15.932,9.804
				l18.384-12.255l28.188-7.353l-8.579-30.639l30.639,2.451l14.706-22.06l18.383,2.451l9.804,15.932l23.286-7.353l4.902-22.06
				l17.158-14.707l19.609-6.127C669.208,216.239,620.186,178.246,481.699,213.788z"/>
			<polygon style="fill:#FFFFFF;" points="206.13,314.639 220.526,335.205 188.649,388.676 179.395,339.318 			"/>
			<polygon style="fill:#FFFFFF;" points="221.555,478.138 159.857,488.421 172.197,527.496 205.102,551.147 195.847,523.383 
				221.555,516.185 			"/>
			<polygon style="fill:#FFFFFF;" points="275.026,407.186 263.715,417.469 266.8,447.289 289.422,460.657 288.394,433.921 			"/>
			<polygon style="fill:#FFFFFF;" points="351.12,422.61 341.865,475.053 361.403,517.213 393.28,497.675 384.025,457.572 			"/>
			<polygon style="fill:#FFFFFF;" points="303.818,484.308 280.168,495.619 302.79,542.92 			"/>
			<path style="fill:#FFFFFF;" d="M269.884,552.175l-22.622,17.481l38.047,65.811l33.934,9.255c0,0,11.311-5.142,11.311-8.226
				c0-3.085-17.481-37.018-17.481-37.018l-19.538-4.113L269.884,552.175z"/>
			<path style="fill:#FFFFFF;" d="M394.308,523.383c-3.085,1.028-37.019,28.792-37.019,28.792l-19.537-1.028l30.849,40.104
				l-4.113,13.368l23.651-16.453l2.056-9.255l15.425-38.047L394.308,523.383z"/>
			<path style="fill:#FFFFFF;" d="M325.412,684.825c0,5.141,18.509,38.047,17.481,41.132s-30.849,26.736-30.849,26.736l-5.141-5.142
				l11.311-62.726H325.412z"/>
			<polygon style="fill:#FFFFFF;" points="381.969,706.419 400.478,707.448 428.242,748.579 402.534,764.004 			"/>
			<path style="fill:#FFFFFF;" d="M409.733,680.712c0,0,9.255-17.481-11.311-42.16l-8.226,7.198L409.733,680.712z"/>
			<path style="fill:#FFFFFF;" d="M392.251,622.099c0,0,28.792,74.037,56.556,97.688s64.782,45.245,64.782,45.245l37.019,86.377
				c0,0-10.283,8.226-6.17,18.509c4.113,10.283,7.198,8.226,7.198,8.226s-7.198,13.368,5.142,23.651l2.057,10.283
				c0,0-2.057,14.396,10.283,23.651c0,0,9.255,4.113,10.283,9.255c1.028,5.142-2.056,8.227,10.283,15.425
				c12.339,7.198,20.566,7.198,20.566,7.198s-2.057,30.849,73.009,22.622c75.066-8.226,57.585-44.217,57.585-44.217l19.538-17.481
				c0,0,4.07-14.603-3.129-19.003c0,0,6-9.599,0-20.799c0,0,9.2-7.2,0.4-19.199c0,0,10.799-6.8,0-17.999c0,0,6-14.799-2.4-23.599
				c0,0,2.8-19.199-13.999-24.399c0,0-5.6-41.598,15.199-63.196c20.799-21.599,100.39-110.798,84.061-208.772
				c-11.793-73.481-15.422-84.367-15.422-84.367l-19.958-1.814l-8.165-35.38l-10.886-3.629l-10.886-9.979l-11.793-4.536
				c0,0-11.793,11.793-24.494,12.701l-7.257-9.979l1.814-22.679c0,0-29.03-16.329-58.059,9.979l-11.793,22.679l-16.329,1.814
				l-8.164-13.608c0,0-21.772,6.35-29.936,16.329l-14.515,6.35l-9.072,11.793l-40.823-1.814l-20.865,19.051l-9.072,28.122
				l-23.586,12.7l1.814,21.772v11.793l18.143,17.236l-4.536,7.257l-14.515,3.629c0,0-27.215-8.165-48.08,4.536
				c-20.865,12.7-13.607,10.886-13.607,10.886l5.443,14.515l-29.937,9.072l6.35,15.422
				C412.328,601.418,387.596,610.122,392.251,622.099z"/>
			<polygon style="fill:#FFFFFF;" points="477.257,362.283 508.791,365.025 516.333,402.73 479.314,412.327 			"/>
			<path style="fill:#FFFFFF;" d="M615.049,308.812l-3.428,31.535l-10.968,6.855l24.679,7.541l44.559-4.113l2.057-23.308
				c0,0-4.113,5.485-4.113,3.428c0-2.057-15.767-46.616-15.767-46.616L615.049,308.812z"/>
			<polygon style="fill:#FFFFFF;" points="735.016,314.982 739.815,354.742 774.091,363.655 761.067,338.975 			"/>
			<polygon style="fill:#FFFFFF;" points="764.494,269.051 792.601,326.636 818.651,324.579 868.009,318.41 860.468,277.278 
				825.506,273.165 796.714,249.856 			"/>
			<polygon style="fill:#FFFFFF;" points="765.865,172.392 763.808,178.561 771.35,182.675 756.954,197.071 717.878,188.844 
				719.249,167.593 741.186,129.889 774.777,147.027 			"/>
			<path style="fill:#FFFFFF;" d="M850.185,164.165l-28.792,18.509l11.654,8.226c0,0,6.855,10.283,18.509,10.283
				c11.654,0,16.453-13.711,16.453-13.711L850.185,164.165z"/>
			<polygon style="fill:#FFFFFF;" points="852.242,373.252 876.236,367.768 885.833,408.214 869.38,415.754 868.009,402.044 			"/>
			<path style="fill:#FFFFFF;" d="M891.317,487.05l-15.767,2.057l15.082,32.905l9.597,1.371
				C900.229,523.383,903.657,502.817,891.317,487.05z"/>
		</g>
		<g>
			<g>
				<g>
					<path style="fill:#272525;" d="M509.519,765.284c-25.031-13.28-46.96-31.521-65.084-53.035
						c-1.397-0.007-2.794-0.115-4.187-0.314c18.933,22.634,42.014,41.76,68.531,55.453
						C510.123,768.082,510.703,765.913,509.519,765.284z"/>
					<path style="fill:#272525;" d="M839.793,517.323c-0.713,2.355-2.047,4.103-3.752,5.311c3.253,17.02,4.4,34.516,3.145,52.172
						c-6.472,91.083-70.577,175.297-157.705,203.476c-3.247,1.05-1.031,6.581,2.229,5.526
						c79.759-25.825,140.203-97.67,156.758-179.296C846.428,575.125,845.858,545.584,839.793,517.323z"/>
					<path style="fill:#272525;" d="M547.49,828.443c-7.514-18.971-16.745-37.805-26.075-55.949
						c-0.673-1.309-2.496-0.645-1.932,0.779c7.502,18.955,15.598,38.283,24.916,56.417
						C545.474,831.784,548.393,830.721,547.49,828.443z"/>
					<path style="fill:#272525;" d="M743.983,815.559c-0.177-0.326-0.401-0.559-0.641-0.747c0.107-0.308,0.16-0.662,0.064-1.119
						c-6.053-28.713,0.512-54.327,16.398-78.558c0.344-0.524-0.369-1.543-0.899-0.988c-19.625,20.556-26.198,52.702-19.3,79.85
						c0.166,0.651,0.554,1.118,1.018,1.419c-0.145,0.4-0.158,0.893,0.064,1.472c17.379,45.329-55.537,66.898-87.904,69.367
						c-37.703,2.876-75.167-8.197-105.397-30.817c-1.086-0.812-2.024,0.778-1.08,1.575c32.526,27.45,76.965,38.361,118.806,32.017
						c20.633-3.128,40.951-10.4,58.25-22.197C739.289,855.972,754.641,835.224,743.983,815.559z"/>
					<path style="fill:#272525;" d="M734.313,830.175c-1.65-1.658-3.644,0.998-2.415,2.641
						c12.747,17.042-28.414,33.157-39.79,37.278c-15.153,5.49-31.159,8.447-47.257,8.986c-33.664,1.126-64.133-9.222-92.902-25.932
						c-0.604-0.352-0.942,0.607-0.495,0.981c30.051,25.199,73.66,32.979,111.685,27.489
						C677.646,879.523,760.201,856.185,734.313,830.175z"/>
					<path style="fill:#272525;" d="M550.77,874.339c-2.398-1.805-4.414-3.573-5.354-6.536c-0.957-3.016-0.77-6.839,0.994-9.554
						c0.318-0.489-0.316-1.411-0.834-0.916c-3.056,2.919-4.378,6.617-3.539,10.878c0.802,4.075,3.396,8.249,7.603,9.343
						C551.471,878.029,552.017,875.277,550.77,874.339z"/>
					<path style="fill:#272525;" d="M561.498,902.584c-7.801-4.992-11.11-11.455-10.8-20.731c0.026-0.769-0.93-1.262-1.319-0.461
						c-4.323,8.914,2.062,21.818,11.398,24.522C562.881,906.524,562.801,903.418,561.498,902.584z"/>
					<path style="fill:#272525;" d="M570.599,934.38c-7.836-4.394-11.028-11.289-11.473-20.01c-0.041-0.806-1.232-1.129-1.529-0.311
						c-3.315,9.146,3.044,20.447,11.74,23.909C571.755,938.931,572.586,935.495,570.599,934.38z"/>
					<path style="fill:#272525;" d="M589.343,960.072c-6.04-2.787-8.413-7.332-9.136-13.727c-0.077-0.68-0.981-0.924-1.271-0.259
						c-2.962,6.811,3.027,15.507,9.741,17.062C590.506,963.572,590.794,960.742,589.343,960.072z"/>
					<path style="fill:#272525;" d="M759.242,926.599c4.984-4.645,5.065-14.357-0.663-18.154c-0.217-0.144-0.42-0.213-0.617-0.259
						c4.769-5.409,4.798-14.926-0.188-19.846c-0.09-0.089-0.18-0.116-0.27-0.183c5.21-3.913,5.521-13.591,1.127-18.188
						c4.673-5.66,2.77-16.025-2.444-20.731c4.652-4.566,5.857-12.927,1.896-18.052c-1.384-1.79-4.242-0.215-3.198,1.961
						c2.44,5.078,2.259,10.084-1.094,14.523c-1.715-0.471-2.612,2.239-1.259,3.369c2.904,2.424,4.764,5.328,5.082,9.256
						c0.238,2.952-0.535,5.379-1.706,7.791c-0.096-0.039-0.179-0.096-0.277-0.132c-2.211-0.809-3.498,2.129-1.806,3.567
						c0.166,0.141,0.298,0.282,0.456,0.422c0.106,0.376,0.356,0.646,0.716,0.663c1.615,1.572,2.72,3.244,2.942,5.829
						c0.287,3.351-0.968,5.994-3.2,8.43c-0.557,0.608-0.401,1.731,0.191,2.164c-0.311,0.716-0.34,1.605,0.129,2.324
						c3.609,5.532,3.4,11.358-0.832,16.71c-0.877,1.11,0.581,2.8,1.753,1.965c0.023-0.017,0.039-0.041,0.063-0.058
						c-0.111,0.636-0.05,1.306,0.269,1.79c1.565,2.372,2.756,4.321,2.569,7.365c-0.178,2.878-1.428,5.37-3.332,7.493
						c-0.348,0.388-0.218,0.944,0.098,1.328c-17.264,18.717-37.667,32.747-61.798,40.432c-26.245,8.359-50.362,6.077-76.762,2.615
						c-0.8-0.105-0.964,1.073-0.311,1.379c22.67,10.631,52.135,8.248,75.905,1.317c25.62-7.47,50.053-22.446,67.323-43.512
						C760.898,929.088,760.266,927.419,759.242,926.599z"/>
					<path style="fill:#272525;" d="M754.215,885.042c-31.689,15.744-63.05,25.886-98.925,24.977
						c-36.412-0.922-68.597-12.946-99.934-30.677c-0.628-0.355-0.997,0.638-0.517,1.022c52.841,42.275,144.9,45.487,200.87,7.401
						C756.986,886.897,755.659,884.325,754.215,885.042z"/>
					<path style="fill:#272525;" d="M756.263,879.506c-26.05,8.683-50.907,15.923-78.634,16.733
						c-27.056,0.79-53.656-3.907-79.429-11.891c-0.596-0.185-0.732,0.835-0.225,1.04c48.194,19.534,112.183,20.519,159.361-3.224
						C758.803,881.426,757.84,878.98,756.263,879.506z"/>
					<path style="fill:#272525;" d="M755.848,868.016c-22.555,8.834-44.662,12.342-68.784,12.701
						c-0.628,0.009-0.533,1.071,0.032,1.141c23.41,2.884,48.384-1.49,69.973-10.814C758.792,870.3,757.601,867.329,755.848,868.016z
						"/>
					<path style="fill:#272525;" d="M758.574,852.336c-8.815,1.382-18.174,3.901-26.621,6.755c-0.826,0.279-0.39,1.727,0.439,1.618
						c8.849-1.169,18.386-3.034,26.912-5.684C760.681,854.597,759.946,852.121,758.574,852.336z"/>
					<path style="fill:#272525;" d="M754.271,914.041c-64.894,22.893-131.814,19.285-195.078-6.971
						c-0.899-0.373-1.242,0.954-0.475,1.351c59.413,30.733,134.79,32.907,196.803,8.718
						C757.313,916.439,756.079,913.403,754.271,914.041z"/>
					<path style="fill:#272525;" d="M722.028,951.207c-25.803,3.18-51.514,3.95-77.357,0.624
						c-24.85-3.199-48.146-10.415-71.726-18.596c-0.603-0.21-0.696,0.805-0.225,1.04c44.733,22.374,100.773,28.293,149.702,19.624
						C724.016,953.616,723.572,951.016,722.028,951.207z"/>
					<path style="fill:#272525;" d="M648.204,971.292c-20.506,1.086-39.228-4.293-56.59-15.096
						c-0.724-0.451-1.221,0.782-0.619,1.227c16.678,12.34,36.97,17.844,57.61,16.611
						C650.263,973.934,649.771,971.209,648.204,971.292z"/>
					<path style="fill:#272525;" d="M742.91,948.642c0.168-2.034-3.15-3.804-3.741-1.309
						c-11.877,50.123-81.119,46.103-119.201,35.167c-0.945-0.271-1.075,1.241-0.345,1.596c22.463,10.906,49.593,12.269,73.692,6.707
						C714.688,985.87,740.852,973.538,742.91,948.642z"/>
					<path style="fill:#272525;" d="M512.494,652.625c-8.209-21.116-15.45-43.049-25.05-63.587
						c-0.333,0.128-0.663,0.262-0.997,0.391c6.591,21.046,15.768,41.539,23.73,62.088c8.213,21.196,16.4,42.402,24.59,63.607
						c16.372,42.388,32.151,85.086,49.425,127.115c0.489,1.188,2.089,0.536,1.65-0.665c-15.604-42.678-32.763-84.841-49.275-127.175
						C528.537,693.809,520.502,673.222,512.494,652.625z"/>
					<path style="fill:#272525;" d="M560.285,840.937c-2.435-6.247,0.051-13.384,5.872-16.745c1.375-0.794,0.231-3.014-1.186-2.161
						c-6.621,3.984-9.168,12.449-6.171,19.505C559.25,842.597,560.704,842.015,560.285,840.937z"/>
					<path style="fill:#272525;" d="M703.614,748.229c1.685-28.979,1.661-58.137,2.289-87.156
						c0.603-27.871,2.011-55.918,1.206-83.789c-0.017-0.579-0.93-0.689-0.981-0.062c-2.301,28.241-2.291,56.8-3.132,85.118
						c-0.844,28.404-2.314,56.907-2.133,85.324C700.874,749.405,703.495,750.27,703.614,748.229z"/>
					<path style="fill:#272525;" d="M721.067,838.64c0.258-15.125-2.034-30.809-3.925-45.8c-0.082-0.647-1.17-0.835-1.153-0.073
						c0.317,15.069,0.331,30.846,2.771,45.727C718.967,839.758,721.041,840.195,721.067,838.64z"/>
					<path style="fill:#272525;" d="M671.705,796.912c-19.095,2.16-39.596,4.023-58.039,9.555c-0.576,0.172-0.22,1.048,0.284,1.046
						c19.185-0.063,39.352-4.161,58.196-7.592C673.925,799.598,673.437,796.716,671.705,796.912z"/>
					<path style="fill:#272525;" d="M739.26,825.874c-3.958-4.131-7.85-8.426-12.339-11.989c-0.607-0.482-1.222,0.309-0.81,0.886
						c3.423,4.788,7.614,9.028,11.631,13.316C739.037,829.469,740.444,827.11,739.26,825.874z"/>
					<path style="fill:#272525;" d="M531.349,701.746c-9.508,7.447-20.734-32.251-22.088-36.822
						c-3.353-11.321-5.117-23.113-8.674-34.339c-0.229-0.721-1.169-0.442-1.125,0.264c1.162,18.385,8.321,37.862,14.719,55.01
						c2.642,7.082,7.629,25.149,18.622,17.919C533.973,703.008,532.543,700.811,531.349,701.746z"/>
					<path style="fill:#272525;" d="M539.518,698.77c-4.864-15.716-10.521-31.227-15.772-46.82
						c-2.935-8.718-5.325-18.348-15.077-21.097c-0.696-0.196-0.681,0.906-0.102,1.109c11.492,4.027,14.178,23.742,17.456,33.961
						c3.623,11.296,6.969,22.705,10.87,33.907C537.572,701.777,540.112,700.689,539.518,698.77z"/>
					<path style="fill:#272525;" d="M704.225,678.342c-9.337,2.579-7.103-37.32-6.92-41.943c0.522-13.119,3.444-26.091,3.849-39.143
						c0.018-0.566-0.785-1.043-1.038-0.363c-6.425,17.309-6.265,38.943-5.817,57.188c0.155,6.307-1.945,32.074,11.081,27.128
						C707.075,680.566,705.904,677.879,704.225,678.342z"/>
					<path style="fill:#272525;" d="M717.818,643.19c-0.091-12.722,3.879-33.983-7.159-43.445c-0.596-0.511-1.33,0.358-0.839,0.919
						c8.164,9.34,5.337,24.841,5.285,36.285c-0.038,8.405,4.071,40.327-7.676,42.677c-1.958,0.392-1.408,3.643,0.487,3.328
						C723.496,680.37,717.895,653.947,717.818,643.19z"/>
					<path style="fill:#272525;" d="M614.981,835.042c-2.219-1.181-4.328-1.826-6.133-3.717c-1.777-1.863-2.988-4.344-3.293-6.903
						c-0.109-0.918-1.574-1.171-1.619-0.102c-0.252,5.931,3.989,13.824,10.767,13.799
						C616.407,838.113,616.103,835.64,614.981,835.042z"/>
					<path style="fill:#272525;" d="M675.448,813.482c-21.291,2.292-43.355,6.876-64.067,12.32c-0.781,0.206-0.34,1.545,0.4,1.475
						c21.378-2.014,43.71-5.332,64.558-10.512C678.071,816.336,677.101,813.305,675.448,813.482z"/>
					<path style="fill:#272525;" d="M710.018,856.439c-2.194-22.423-7.473-44.867-12.218-66.868
						c-0.151-0.703-1.151-0.698-1.06,0.085c2.571,22.295,4.81,45.172,9.919,67.052C707.175,858.917,710.262,858.934,710.018,856.439
						z"/>
					<path style="fill:#272525;" d="M717.614,849.941c-2.254-13.728-4.974-27.625-8.453-41.097c-0.28-1.083-1.825-1.124-1.679,0.134
						c1.6,13.766,4.085,27.656,6.928,41.219C714.856,852.325,717.999,852.281,717.614,849.941z"/>
					<path style="fill:#272525;" d="M688.734,793.726c-35.143-2.625-74.337,4.19-105.921,20.104
						c-2.716-6.458-5.392-12.922-7.933-19.418c-0.26-0.663-1.167-0.296-0.915,0.369c9.676,25.536,17.505,52.096,28.62,77.049
						c0.868,1.949,3.381,0.903,2.726-1.1c-6.083-18.597-13.963-36.675-21.602-54.782c34.974-12.318,68.008-18.567,105.141-18.143
						C691.072,797.832,690.779,793.879,688.734,793.726z"/>
					<path style="fill:#272525;" d="M690.39,801.651c-30.298-2.715-67.72,3.622-94.875,17.598c-0.964,0.496-0.336,2.026,0.699,1.734
						c16.03-4.532,31.382-9.886,47.934-12.532c15.475-2.475,30.753-2.537,46.344-3.132
						C692.491,805.243,692.231,801.816,690.39,801.651z"/>
					<path style="fill:#272525;" d="M688.175,808.723c-31.227-0.77-68.072,6.188-96.016,20.481
						c-0.774,0.396-0.267,1.617,0.559,1.387c16.337-4.55,32.112-10.015,48.872-13.058c15.693-2.849,31.312-3.682,47.176-4.772
						C691.264,812.59,690.422,808.778,688.175,808.723z"/>
					<path style="fill:#272525;" d="M694.545,822.769c-16.187-0.525-33.154,2.422-48.977,5.649
						c-14.939,3.047-30.286,6.779-44.199,13.088c-0.858,0.389-0.272,1.702,0.597,1.479c15.88-4.067,31.367-8.99,47.558-11.865
						c15.155-2.691,30.296-3.2,45.527-4.9C697.191,825.981,696.459,822.831,694.545,822.769z"/>
					<path style="fill:#272525;" d="M690.311,832.889c-30.33,0.588-62.919,6.821-90.345,20.111
						c-0.854,0.414-0.287,1.812,0.615,1.526c29.925-9.495,58.817-16.278,90.27-17.941
						C693.101,836.465,692.409,832.848,690.311,832.889z"/>
					<path style="fill:#272525;" d="M693.416,840.191c-25.447-0.042-56.958,3.949-79.729,16.091
						c-0.489,0.26-0.314,1.236,0.303,1.118c13.283-2.527,26.085-7.097,39.471-9.41c13.445-2.323,26.917-3.209,40.52-3.933
						C696.349,843.932,695.594,840.194,693.416,840.191z"/>
					<path style="fill:#272525;" d="M696.046,849.536c-28.692-0.441-60.925,5.985-86.863,18.403
						c-0.771,0.369-0.257,1.601,0.55,1.364c14.735-4.334,29.162-8.995,44.321-11.765c14.129-2.581,28.232-3.396,42.523-4.38
						C698.809,853.004,698.07,849.567,696.046,849.536z"/>
					<path style="fill:#272525;" d="M701.068,858.753c-29.187-1.418-61.704,3.012-88.72,14.529c-0.914,0.39-0.279,1.767,0.625,1.549
						c29.829-7.194,57.898-11.977,88.647-12.309C703.942,862.497,703.156,858.854,701.068,858.753z"/>
					<path style="fill:#272525;" d="M569.142,860.494c-5.573-10.609-3.75-23.163,5.046-31.478c0.615-0.581-0.128-1.756-0.878-1.227
						c-10.846,7.663-13.79,23.01-6.847,34.296C567.5,863.775,570.051,862.225,569.142,860.494z"/>
					<path style="fill:#272525;" d="M581.756,870.211c-4.893-7.09-5.341-14.416-1.081-22.005c0.454-0.809-0.495-2.381-1.39-1.527
						c-4.388,4.186-5.868,10.901-4.62,16.932c-3.918-9.183-2.957-17.214,3.031-25.636c0.457-0.643-0.341-1.605-1.031-1.132
						c-8.955,6.151-10.753,21.464-4.083,29.853c0.937,1.178,2.559,0.663,2.833-0.486c0.876,2.454,2.204,4.713,4.062,6.493
						C581.097,874.258,582.838,871.779,581.756,870.211z"/>
					<path style="fill:#272525;" d="M588.358,870.696c-2.844-6.746-4.301-13.043-0.682-19.918c0.465-0.882-0.672-2.161-1.374-1.187
						c-4.459,6.193-5.734,16.404-0.325,22.518C587.099,873.377,589.071,872.388,588.358,870.696z"/>
					<path style="fill:#272525;" d="M594.524,875.245c-2.406-4.622-2.55-9.957,0.118-14.515c0.529-0.904-0.706-2.202-1.41-1.218
						c-3.666,5.119-4.014,11.582-0.957,17.069C593.087,878.037,595.28,876.697,594.524,875.245z"/>
					<path style="fill:#272525;" d="M742.455,829.008c-2.321-8.377-13.135-13.788-21.302-12.455c-0.808,0.132-0.75,1.41,0.043,1.53
						c3.952,0.601,7.685,1.633,11.045,3.873c3.433,2.288,5.235,5.388,7.665,8.566C741.136,832.13,742.926,830.71,742.455,829.008z"
						/>
					<path style="fill:#272525;" d="M734.382,839.693c0.7-7.117-5.089-14.691-11.876-16.474c-1.128-0.296-1.247,1.443-0.405,1.873
						c6.123,3.129,8.687,7.75,9.419,14.419C731.702,841.17,734.2,841.55,734.382,839.693z"/>
					<path style="fill:#272525;" d="M743.74,822.284c-2.975-9.16-11.847-17.524-21.491-19.112c-1.296-0.214-1.438,1.611-0.46,2.127
						c8.58,4.536,14.193,9.579,18.695,18.297C741.636,825.828,744.529,824.716,743.74,822.284z"/>
					<path style="fill:#272525;" d="M736.372,817.755c-1.002-1.354-2.517,0.129-1.748,1.434c5.282,8.96,4.657,19.081-0.954,27.695
						c-1.135,1.742,1.331,4.222,2.748,2.373C743.386,840.159,743.118,826.866,736.372,817.755z"/>
					<path style="fill:#272525;" d="M576.552,900.916c-6.251-3.928-12.615-7.652-19.132-11.122c-0.744-0.396-1.25,0.801-0.619,1.227
						c6.212,4.186,12.567,8.131,19.058,11.867C577.099,903.601,577.59,901.568,576.552,900.916z"/>
					<path style="fill:#272525;" d="M751.04,900.095c-43.166,16.218-88.189,20.977-133.814,14.074
						c-0.794-0.12-0.824,1.103-0.115,1.253c44.907,9.517,92.761,5.425,135.411-11.65C754.64,902.924,753.175,899.293,751.04,900.095
						z"/>
					<path style="fill:#272525;" d="M746.346,929.979c-28.353,4.143-55.393,9.296-84.278,8.348
						c-29.381-0.965-58.07-6.365-86.242-14.563c-1.203-0.351-1.506,1.724-0.455,2.104c26.94,9.737,55.362,15.088,83.94,16.668
						c28.692,1.586,60.698,0.931,88.294-7.916C749.98,933.858,748.716,929.633,746.346,929.979z"/>
					<path style="fill:#272525;" d="M688.024,963.589c-36.403,9.379-71.626,6.116-106.481-7.563
						c-1.091-0.428-1.465,1.114-0.569,1.617c32.432,18.191,73.452,21.279,108.738,10.13
						C692.218,966.982,690.483,962.956,688.024,963.589z"/>
					<path style="fill:#272525;" d="M634.054,976.003c0.135-0.606-0.662-1.52-1.139-0.765c-1.712,2.709-2.884,5.833-4.182,8.757
						c-0.606,1.365,1.619,2.671,2.203,1.107C632.045,982.128,633.361,979.105,634.054,976.003z"/>
					<path style="fill:#272525;" d="M643.66,976.412c0.372-0.99-1.056-1.841-1.552-0.78c-1.48,3.163-3.256,6.345-4.326,9.674
						c-0.326,1.014,1.205,2.45,1.847,1.239C641.316,983.36,642.394,979.78,643.66,976.412z"/>
					<path style="fill:#272525;" d="M651.011,975.612c0.173-0.694-0.74-1.324-1.09-0.548c-1.719,3.804-3.474,7.921-4.575,11.949
						c-0.321,1.174,1.289,2.246,1.846,0.928C648.833,984.061,649.995,979.699,651.011,975.612z"/>
					<path style="fill:#272525;" d="M660.814,974.946c0.232-0.593-0.698-1.386-1.061-0.712c-2.325,4.327-4.94,8.812-6.654,13.409
						c-0.368,0.986,1.142,2.311,1.768,1.186C657.28,984.499,659.016,979.56,660.814,974.946z"/>
					<path style="fill:#272525;" d="M675.485,973.284c0.423-0.876-0.993-2.005-1.572-1.054c-2.915,4.787-5.592,9.752-8.244,14.69
						c-0.642,1.195,1.08,2.898,1.813,1.566C670.239,983.479,672.998,978.432,675.485,973.284z"/>
					<path style="fill:#272525;" d="M685.185,972.56c0.302-0.624-0.708-1.428-1.12-0.751c-2.767,4.555-5.561,9.146-7.872,13.947
						c-0.416,0.865,0.979,1.979,1.552,1.041C680.529,982.241,682.857,977.368,685.185,972.56z"/>
					<path style="fill:#272525;" d="M691.929,969.02c0.27-0.829-0.848-1.508-1.279-0.643c-2.801,5.617-5.5,11.597-7.627,17.502
						c-0.473,1.314,1.406,2.447,2.056,1.033C687.711,981.19,689.978,975.011,691.929,969.02z"/>
					<path style="fill:#272525;" d="M702.572,967.582c0.287-0.618-0.751-1.429-1.1-0.738c-3.185,6.309-6.786,12.539-9.56,19.039
						c-0.385,0.903,1.061,2.091,1.611,1.081C696.919,980.732,699.587,974.019,702.572,967.582z"/>
					<path style="fill:#272525;" d="M714.434,965.624c0.377-0.827-1-1.913-1.474-0.988c-3.379,6.6-7.17,13.219-9.941,20.09
						c-0.409,1.012,1.161,2.345,1.807,1.213C708.509,979.484,711.352,972.383,714.434,965.624z"/>
					<path style="fill:#272525;" d="M726.36,957.675c0.457-0.989-1.172-2.287-1.768-1.186c-4.892,9.028-9.729,18.209-14.045,27.526
						c-0.549,1.186,1.407,2.744,2.122,1.424C717.567,976.392,722.039,967.008,726.36,957.675z"/>
					<path style="fill:#272525;" d="M725.383,975.18c2.416-8.299,5.042-16.569,7.131-24.957c0.28-1.123-1.313-2.205-1.783-0.896
						c-2.904,8.092-5.288,16.387-7.866,24.588C722.354,975.541,724.853,976.997,725.383,975.18z"/>
					<path style="fill:#272525;" d="M737.285,957.583c0.479-1.739,0.964-3.474,1.47-5.204c0.342-1.166-1.389-2.243-1.825-0.918
						c-0.557,1.699-1.137,3.389-1.722,5.078C734.74,957.889,736.874,959.071,737.285,957.583z"/>
					<path style="fill:#272525;" d="M742.357,804.503c-2.962-1.975-4.452,2.97-2.458,4.867
						c19.865,18.905-19.571,43.234-34.233,50.98c-16.051,8.48-33.749,13.833-51.762,15.952
						c-34.292,4.034-76.309-3.123-101.639-28.57c-0.112-0.79-0.257-1.575-0.373-2.363c0.151-0.252,0.262-0.535,0.261-0.878
						c-0.006-2.361-0.941-4.719-1.574-6.985c-0.391-1.4-1.759-1.76-2.84-1.382c-0.088-0.14-0.191-0.262-0.268-0.417
						c-0.263-0.525-0.985-0.418-0.933,0.22c0.039,0.487-0.024,0.963-0.073,1.444c-0.109,0.328-0.164,0.691-0.075,1.119
						c0.26,1.258,0.576,2.495,0.852,3.745c-1.013-0.895-2.711,0.043-1.994,1.445c10.185,19.924,33.451,29.541,54.087,34.928
						c22.824,5.958,47.147,6.258,70.18,1.292c21.875-4.716,42.727-14.017,60.407-27.805
						C743.013,841.886,763.024,818.28,742.357,804.503z"/>
				</g>
			</g>
			<path style="fill:#272525;" d="M420.531,614.795c-6.994,4.247-11.411,10.737-13.14,18.543c-3.889-2.949-7.765-5.926-11.8-8.667
				c-1.209-0.821-2.446,0.591-1.311,1.591c4.283,3.778,8.831,7.263,13.29,10.83c0.909,0.727,2.253,0.442,2.475-0.775
				c1.427-7.81,5.954-14.406,12.474-18.87C424.168,616.317,422.129,613.823,420.531,614.795z"/>
			<path style="fill:#272525;" d="M455.257,602.281c-8.255-6.548-26.106-4.105-27.937,8.094c-0.074,0.496,0.696,0.955,1.029,0.504
				c2.888-3.918,5.552-7.239,10.402-8.808c5.059-1.637,10.512-0.893,14.804,2.275C455.093,605.482,456.781,603.49,455.257,602.281z"
				/>
			<path style="fill:#272525;" d="M457.747,604.497c-0.453-0.938-1.981-0.628-1.566,0.476c2.181,5.805,4.542,11.663,7.211,17.26
				c0.542,1.136,2.4,0.754,1.893-0.575C463.07,615.852,460.447,610.091,457.747,604.497z"/>
			<path style="fill:#272525;" d="M482.199,621.483c1.892-3.469,3.573-7.136,5.082-10.739c0.477-1.138-1.402-2.132-1.958-0.949
				c-1.779,3.779-3.504,7.745-4.849,11.733c-4.848,0.386-9.535,1.144-14.355,1.832c-0.765,0.109-0.519,1.183,0.183,1.135
				c4.604-0.315,9.117-0.565,13.679-1.122c0.176,0.459,0.835,0.673,1.15,0.145c0.054-0.091,0.095-0.193,0.149-0.283
				c0.299-0.042,0.594-0.049,0.894-0.095C483.217,622.984,483.007,621.738,482.199,621.483z"/>
			<path style="fill:#272525;" d="M503.223,606.544c-4.765,0.981-9.609,1.806-14.289,3.148c-0.692,0.198-0.288,1.255,0.346,1.181
				c4.926-0.581,9.805-1.693,14.67-2.639C505.083,608.013,504.258,606.33,503.223,606.544z"/>
			<path style="fill:#272525;" d="M510.247,595.568c-0.947,2.897-1.827,5.808-2.695,8.73c-0.21,0.708,0.922,1.347,1.202,0.582
				c1.041-2.847,2.067-5.693,3.029-8.568C512.089,595.397,510.564,594.6,510.247,595.568z"/>
			<path style="fill:#272525;" d="M518.584,568.088c-1.989,4.292-3.973,8.578-5.839,12.926c-0.459,1.069,1.332,2.015,1.847,0.895
				c1.977-4.3,3.83-8.646,5.683-13.001C520.693,567.927,519.06,567.063,518.584,568.088z"/>
			<path style="fill:#272525;" d="M527.223,551.939c-0.508,0.5-0.903,0.968-1.304,1.558c-0.384,0.565,0.412,1.544,0.988,1.033
				c0.569-0.505,1.045-0.999,1.508-1.609C528.961,552.203,527.849,551.323,527.223,551.939z"/>
			<path style="fill:#272525;" d="M552.638,561.979c-6.676-2.021-13.449-3.713-20.193-5.49c-0.682-0.18-0.687,0.792-0.101,0.972
				c6.696,2.062,13.371,4.214,20.138,6.033C553.539,563.778,553.557,562.257,552.638,561.979z"/>
			<path style="fill:#272525;" d="M579.589,562.037c-8.245,2.158-16.362,4.682-24.505,7.195c-1.46,0.451-0.377,2.585,0.947,2.201
				c8.174-2.371,16.335-4.715,24.399-7.44C581.728,563.555,580.765,561.729,579.589,562.037z"/>
			<path style="fill:#272525;" d="M596.57,546.354c-3.414,4.282-6.784,8.594-10.141,12.92c-0.78,1.006,0.901,2.401,1.712,1.411
				c3.469-4.235,6.92-8.481,10.333-12.762C599.358,546.815,597.455,545.243,596.57,546.354z"/>
			<path style="fill:#272525;" d="M586.57,522.138c-0.461-1.092-2.226-0.693-1.762,0.535c1.829,4.842,3.774,9.625,5.762,14.404
				c0.455,1.095,2.233,0.689,1.762-0.536C590.475,531.71,588.585,526.905,586.57,522.138z"/>
			<path style="fill:#272525;" d="M584.368,500.183c-1.448,3.841-2.876,7.688-4.285,11.543c-0.45,1.231,1.585,2.319,2.092,1.014
				c1.485-3.823,2.95-7.652,4.397-11.489C587.06,499.955,584.886,498.808,584.368,500.183z"/>
			<path style="fill:#272525;" d="M615.455,471.382c-8.105,3.866-16.419,7.53-24.2,12.024c-0.635,0.367,0.051,1.407,0.671,1.155
				c8.402-3.406,16.478-7.73,24.583-11.775C617.448,472.318,616.337,470.962,615.455,471.382z"/>
			<path style="fill:#272525;" d="M639.03,487.75c-4.72-4.692-10.235-9.324-15.708-13.114c-0.729-0.505-1.92,0.255-1.171,1.045
				c4.636,4.89,10.105,9.713,15.526,13.711C638.925,490.312,640.107,488.82,639.03,487.75z"/>
			<path style="fill:#272525;" d="M664.243,472.552c-7.174,4.724-14.633,9.391-21.302,14.813c-0.686,0.557,0.15,1.561,0.875,1.167
				c7.57-4.109,14.745-9.224,21.866-14.06C666.874,473.662,665.38,471.804,664.243,472.552z"/>
			<path style="fill:#272525;" d="M683.739,474.508c-2.133-1.32-4.612-2.153-6.917-3.136c-2.082-0.887-4.128-1.82-6.32-2.398
				c-0.676-0.178-1.001,0.752-0.464,1.127c2.013,1.405,4.218,2.448,6.403,3.554c2.205,1.117,4.374,2.395,6.727,3.162
				C684.747,477.331,684.796,475.162,683.739,474.508z"/>
			<path style="fill:#272525;" d="M704.772,468.022c-5.73,1.991-11.459,3.978-17.161,6.051c-1.045,0.38-0.272,1.893,0.689,1.601
				c5.821-1.768,11.614-3.622,17.409-5.473C707.146,469.742,706.069,467.571,704.772,468.022z"/>
			<path style="fill:#272525;" d="M717.984,477.714c-0.232-1.456-2.591-1.572-2.441,0.079c0.702,7.718,1.816,15.384,2.975,23.043
				c0.204,1.345,2.403,1.449,2.253-0.073C720.01,493.06,719.201,485.361,717.984,477.714z"/>
			<path style="fill:#272525;" d="M744.68,512.481c-5.8,2.713-12.281,2.861-18.267,0.628c-0.947-0.354-1.383,0.842-0.525,1.294
				c6.5,3.423,13.714,3.319,20.246,0.018C747.436,513.762,745.893,511.913,744.68,512.481z"/>
			<path style="fill:#272525;" d="M775.14,491.839c-4.795,9.125-9.525,18.284-14.211,27.466c-0.529,1.037,1.272,1.979,1.847,0.895
				c4.833-9.107,9.621-18.237,14.345-27.401C777.691,491.691,775.753,490.672,775.14,491.839z"/>
			<path style="fill:#272525;" d="M768.292,470.515c-0.286-1.31-2.561-1.394-2.229,0.072c0.995,4.404,1.9,8.842,3.223,13.162
				c0.264,0.862,1.743,0.73,1.605-0.262C770.285,479.121,769.232,474.82,768.292,470.515z"/>
			<path style="fill:#272525;" d="M758.532,457.47c-4.979,0.393-9.893,1.387-14.797,2.304c-1.481,0.277-0.399,2.459,0.947,2.201
				c4.773-0.916,9.586-1.758,14.236-3.189C759.692,458.548,759.237,457.414,758.532,457.47z"/>
			<path style="fill:#272525;" d="M751.354,436.78c-0.989,2.936-2.11,5.905-2.652,8.965c-0.14,0.791,1.044,1.19,1.423,0.494
				c1.441-2.644,2.37-5.588,3.388-8.412C753.975,436.544,751.81,435.426,751.354,436.78z"/>
			<path style="fill:#272525;" d="M779.555,412.154c-5.348,3.249-10.63,6.611-15.77,10.181c-0.849,0.59,0.195,1.847,1.024,1.366
				c5.417-3.148,10.706-6.511,15.918-9.984C781.707,413.065,780.497,411.582,779.555,412.154z"/>
			<path style="fill:#272525;" d="M803.523,435.853c-1.929-9.608-3.765-19.297-6.283-28.772c-0.283-1.062-2.089-1.256-1.901,0.061
				c1.376,9.659,3.482,19.248,5.462,28.798C801.132,437.54,803.886,437.663,803.523,435.853z"/>
			<path style="fill:#272525;" d="M817.699,447.905c-4.765-1.049-9.587-2.003-14.434-2.587c-1.07-0.129-1.078,1.233-0.155,1.493
				c4.72,1.325,9.552,2.307,14.374,3.175C818.952,450.25,819.012,448.194,817.699,447.905z"/>
			<path style="fill:#272525;" d="M825.179,450.28c-0.263-0.603-1.229-0.388-0.978,0.297c8.462,23.125,12.247,46.746,11.504,71.369
				c-0.075,2.498,4.203,3.642,4.234,0.921C840.219,497.823,835.217,473.235,825.179,450.28z"/>
			<path style="fill:#272525;" d="M542.62,423.368c-7.471,7.847-15.059,15.608-22.496,23.495c-0.618,0.656,0.559,1.578,1.192,0.983
				c7.939-7.454,15.749-15.055,23.65-22.544C546.206,424.127,543.844,422.082,542.62,423.368z"/>
			<path style="fill:#272525;" d="M594.343,416.068c-3.903,4.105-7.772,8.407-11.284,12.871c-11.937-1.945-24.262-3.917-36.289-4.26
				c-0.89-0.025-0.618,1.17,0.041,1.351c12.526,3.433,25.897,5.23,38.756,7.017c2.566,0.357,2.72-3.261,0.377-3.642
				c-0.039-0.006-0.079-0.013-0.118-0.019c3.872-3.546,7.616-7.306,11.173-11.129C598.344,416.809,595.703,414.638,594.343,416.068z
				"/>
			<path style="fill:#272525;" d="M639.926,394.413c1.257-0.666,0.829-2.975-0.781-3.164c-12.915-1.516-26.793,6.488-31.793,18.615
				c-0.126-0.028-0.217-0.118-0.357-0.114c-2.157,0.056-4.29,0.797-6.378,1.318c-2.291,0.57-4.606,1.119-6.844,1.868
				c-1.339,0.448-0.59,2.489,0.685,2.339c2.148-0.254,4.285-0.678,6.41-1.086c2.29-0.439,4.835-0.654,6.959-1.6
				c0.607-0.271,0.776-0.769,0.763-1.27c7.386-10.45,16.911-15.809,29.757-16.639c1.117,3.373,2.23,7.178,4.011,10.233
				c0.55,0.943,2.497,0.582,2.144-0.656C643.543,400.905,641.583,397.516,639.926,394.413z"/>
			<path style="fill:#272525;" d="M658.679,401.763c-4.349,1.263-8.58,3.066-12.787,4.733c-0.878,0.348-0.235,1.58,0.584,1.356
				c4.389-1.2,8.88-2.301,13.141-3.91C661.035,403.407,659.992,401.383,658.679,401.763z"/>
			<path style="fill:#272525;" d="M675.75,380.641c-4.811,6.21-9.265,13.521-12.853,20.516c-0.36,0.701,0.806,1.456,1.306,0.839
				c4.95-6.101,9.816-13.152,13.558-20.063C678.337,380.872,676.501,379.672,675.75,380.641z"/>
			<path style="fill:#272525;" d="M736.215,371.904c-18.237-12.107-43.736-7.446-58.962,7.418c-0.707,0.69,0.593,2.01,1.329,1.39
				c15.501-13.068,34.005-14.284,52.045-7.383c-0.343,8.375-0.251,16.934,0.298,25.255c0.133,2.021,3.971,2.683,3.935,0.367
				c-0.129-8.14-0.725-16.44-1.683-24.572c0.418,0.178,0.838,0.336,1.255,0.523C736.396,375.78,738.097,373.154,736.215,371.904z"/>
			<path style="fill:#272525;" d="M785.509,409.402c-3.165-4.265-6.865-8.251-10.485-12.183c0.352,0.015,0.706,0.039,1.057,0.055
				c2.17,0.095,1.511-3.335-0.523-3.245c-3.328,0.147-6.678,0.274-10.019,0.475c0.546-0.829,1.128-1.634,1.573-2.529
				c0.844-1.695-2.082-3.702-3.216-2.065c-1.334,1.928-2.785,3.623-4.301,5.192c-0.095,0.065-0.172,0.129-0.217,0.228
				c-6.322,6.437-14.217,9.774-24.072,9.355c-1.375-0.058-1.041,1.916,0.066,2.152c10.337,2.207,21.932-1.99,28.633-10.187
				c2.948,0.219,5.903,0.33,8.854,0.457c3.224,4.717,6.454,9.589,10.143,13.93C784.313,412.578,786.827,411.179,785.509,409.402z"/>
			<path style="fill:#272525;" d="M796.121,405.795c-1.676-0.262-3.383-0.365-5.073-0.518c-1.761-0.159-3.602-0.482-5.354-0.2
				c-1.013,0.163-1.177,1.484-0.2,1.902c3.044,1.303,7.017,1.702,10.293,2.051C798.058,409.272,798.22,406.124,796.121,405.795z"/>
			<path style="fill:#272525;" d="M519.49,445.559c-2.308,5.982-4.455,12.268-6.044,18.48c-0.421,1.646,2.242,3.145,2.782,1.349
				c1.89-6.292,3.331-12.942,4.478-19.407C520.819,445.349,519.747,444.895,519.49,445.559z"/>
			<path style="fill:#272525;" d="M511.593,472.548c-6.215,3.441-13.341,6.923-18.819,11.458c-1.331,1.102,0.279,2.96,1.692,2.256
				c6.345-3.162,12.397-8.218,18.047-12.487C513.256,473.213,512.346,472.131,511.593,472.548z"/>
			<path style="fill:#272525;" d="M487.842,487.757c-0.18-0.601-1.139-0.482-1.085,0.177c0.77,9.499,2.249,19.628,4.479,28.894
				c0.428,1.778,3.419,2.044,3.121-0.101C493.025,507.139,490.62,497.035,487.842,487.757z"/>
			<path style="fill:#272525;" d="M509.023,533.956c-2.408-3.777-8.4-6.145-12.234-3.049c-0.629,0.508-0.157,1.608,0.659,1.525
				c2.997-0.306,6.468-0.038,8.232,2.826c1.672,2.714,0.435,6.653-1.865,8.567c-1.748,1.455,0.444,4.261,2.3,3.068
				C510.44,544.111,511.812,538.33,509.023,533.956z"/>
			<path style="fill:#272525;" d="M501.797,548.734c-16.855-3.457-44.54-10.935-58.612,2.89c-1.575,1.547,1.269,4.382,2.947,3.084
				c15.082-11.666,38.124-4.464,55.707-4.577C502.728,550.125,502.527,548.883,501.797,548.734z"/>
			<path style="fill:#272525;" d="M441.234,552.1c-4.35,3.473-8.695,6.932-13.193,10.211c-0.668,0.487-0.773,1.234-0.517,1.972
				c1.22,3.523,2.537,7.052,3.979,10.51c-0.195-0.019-0.394-0.009-0.584,0.081c-9.784,4.583-19.691,8.763-29.421,13.481
				c-1.019,0.494-1.001,2.167-0.341,2.912c2.512,2.835,4.963,5.795,7.691,8.44c-8.606,2.565-18.449,11.023-19.702,20.159
				c-0.204,1.485,2.261,3.135,3.256,1.666c0.241,1.539,0.47,3.078,0.764,4.612c0.216,1.128,2.162,1.192,1.901-0.062
				c-0.456-2.188-1.012-4.344-1.528-6.515c1.838-3.309,3.384-6.668,5.841-9.703c3.089-3.816,6.93-6.204,11.124-8.599
				c0.015,0.013,0.028,0.028,0.043,0.041c1.689,1.466,3.959-0.505,2.651-2.366c-2.035-2.894-4.508-5.485-6.947-8.068
				c8.771-4.577,17.324-9.479,26.067-14.112c0.133,0.3,0.241,0.615,0.378,0.913c0.981,2.142,4.338,1.411,3.503-1.065
				c-1.13-3.348-5.394-9.626-4.365-12.987c0.493-1.609,3.894-4.104,5.102-5.323c1.734-1.75,3.504-3.464,5.252-5.2
				C442.693,552.596,441.772,551.669,441.234,552.1z"/>
			<path style="fill:#272525;" d="M656.943,210.205c-106.735-34.846-234.32,1.874-306.714,87.33
				c-0.53,0.625,0.547,1.506,1.096,0.903c76.569-84.073,196.506-116.898,305.24-84.569
				C659.101,214.623,659.138,210.922,656.943,210.205z"/>
			<path style="fill:#272525;" d="M365.367,318.449c-5.28-5.793-11.3-11.095-17.053-16.418c-0.889-0.822-2.358,0.372-1.48,1.321
				c5.311,5.738,10.592,11.762,16.37,17.027C364.511,321.57,366.643,319.849,365.367,318.449z"/>
			<path style="fill:#272525;" d="M398.201,324.385c-3.024-6.321-7.181-12.298-10.928-18.25c0.501-0.992-1.031-2.373-2.005-1.66
				c-6.679,4.891-13.197,11.1-18.961,17.054c-0.529,0.548,0.419,1.466,1.005,1.052c6.428-4.552,13.161-9.76,18.853-15.296
				c3.119,6.08,6.092,12.46,9.879,18.102C396.809,326.525,398.872,325.786,398.201,324.385z"/>
			<path style="fill:#272525;" d="M408.073,328.282c-1.781-4.698-7.72-2.592-10.858-0.913c-0.882,0.471,0.071,1.849,0.903,1.554
				c1.768-0.626,5.631-2.116,7.174-0.395c0.701,0.782,0.541,3.475-0.906,3.105c-1.615-0.413-1.598,1.848-0.236,2.284
				C407.422,334.966,409.047,330.852,408.073,328.282z"/>
			<path style="fill:#272525;" d="M435.537,362.065c-0.247-0.07-0.513-0.104-0.763-0.17c2.001-7.611,4.045-15.261,5.517-22.985
				c0.254-1.334-1.925-1.911-2.27-0.494c-1.86,7.641-3.165,15.447-4.498,23.201c-5.158-1.163-10.79-1.433-16.177-1.68
				c-0.466-7.14-1.771-14.529-3.292-21.506c-0.145-0.665-1.151-0.73-1.126,0.036c0.229,7.034,0.788,14.407,2.058,21.351
				c-0.529-0.029-1.08-0.048-1.6-0.081c-0.806-0.051-0.633,1.156,0.04,1.282c7.093,1.327,14.939,3.452,22.178,3.199
				C437.019,364.168,436.603,362.369,435.537,362.065z"/>
			<path style="fill:#272525;" d="M467.576,318.245c-7.323,5.449-14.645,10.997-21.566,16.948c-0.575,0.494,0.148,1.435,0.771,1.029
				c7.65-4.977,15.027-10.454,22.308-15.958C470.295,319.352,468.725,317.39,467.576,318.245z"/>
			<path style="fill:#272525;" d="M496.229,318.084c-4.47-2.84-9.181-5.379-13.869-7.836c-0.928-0.487-1.712,0.835-0.847,1.423
				c4.484,3.051,9.043,6.083,13.765,8.754C496.915,321.35,497.646,318.984,496.229,318.084z"/>
			<path style="fill:#272525;" d="M528.487,299.976c-6.435,1.609-12.715,3.84-19.013,5.914c-0.83,0.273-0.211,1.428,0.536,1.245
				c6.475-1.591,13.021-3.033,19.366-5.091C530.756,301.596,529.728,299.666,528.487,299.976z"/>
			<path style="fill:#272525;" d="M606.69,266.774c-2.475-5.23-5.369-10.283-8.198-15.331c0.333-0.805-0.355-2.079-1.503-2.133
				c-6.936-0.323-13.951,0.115-20.89,0.441c0.21-0.364,0.438-0.716,0.646-1.08c0.802-1.406-1.837-3.177-2.739-1.758
				c-3.811,5.995-8.407,19.058-15.616,21.248c-3.414,1.037-9.978-0.75-13.577-1.02c-4.515-0.339-9.015-0.7-13.543-0.809
				c-0.192-0.005-0.302,0.084-0.411,0.17c-0.281-0.833-0.545-1.675-0.838-2.503c-0.619-1.745-3.316-1.083-2.72,0.827
				c2.58,8.261,5.836,16.37,8.771,24.514c0.377,1.047,1.983,0.649,1.631-0.496c-2.128-6.936-4.081-13.979-6.355-20.882
				c10.104,1.59,20.358,2.399,30.53,3.458c0.746,0.078,1.228-0.13,1.607-0.773c3.796-6.438,7.805-12.749,11.594-19.19
				c0.115,0.053,0.207,0.144,0.343,0.15c7.156,0.318,14.409,0.802,21.574,0.496c2.289,5.187,4.551,10.42,7.193,15.433
				C604.953,268.987,607.497,268.48,606.69,266.774z"/>
			<path style="fill:#272525;" d="M627.018,258.147c-5.567,1.524-10.945,3.723-16.34,5.757c-1.026,0.387-0.27,1.861,0.68,1.578
				c5.538-1.649,11.167-3.15,16.531-5.312C629.195,259.644,628.242,257.812,627.018,258.147z"/>
			<path style="fill:#272525;" d="M631.35,236.951c-0.091-1.271-2.367-1.693-2.474-0.23c-0.402,5.506,0.141,11.235,0.385,16.751
				c0.039,0.887,1.674,1.174,1.72,0.16C631.229,248.132,631.743,242.446,631.35,236.951z"/>
			<path style="fill:#272525;" d="M668.048,216.855c-5.566,1.692-11.344,3.2-16.787,5.339c0.438-0.329,0.898-0.622,1.332-0.955
				c1.266-0.972-0.335-2.98-1.603-2.137c-6.567,4.364-12.728,9.207-18.959,14.025c-0.9,0.696,0.236,2.122,1.143,1.523
				c5.288-3.49,10.534-7.001,15.656-10.712c0.114,0.277,0.358,0.501,0.712,0.446c6.63-1.018,13.179-3.134,19.645-4.884
				C670.943,219.025,669.649,216.368,668.048,216.855z"/>
			<path style="fill:#272525;" d="M375.274,306.17c2.249-1.405,4.491-2.815,6.71-4.267c0.721-0.471-0.173-1.581-0.861-1.147
				c-2.241,1.414-4.454,2.866-6.665,4.326c-0.248,0.164-0.253,0.399-0.179,0.621c-1.55-1.871-4.254-2.653-6.599-1.685
				c-0.234-0.533-0.852-0.939-1.449-0.578c-3.694,2.234-7.725,4.777-10.788,7.84c-0.434,0.434,0.259,1.26,0.777,1.028
				c3.846-1.714,7.554-4.401,10.907-6.973c0.178,0.135,0.383,0.226,0.598,0.152c2.495-0.852,5.008,0.374,5.989,2.781
				c0.341,0.836,1.937,0.798,1.695-0.276c-0.164-0.728-0.488-1.366-0.891-1.936C374.732,306.232,375.009,306.336,375.274,306.17z"/>
			<path style="fill:#272525;" d="M396.785,286.148c-1.605,2.254-3.189,4.522-4.781,6.786c-0.401,0.57,0.518,1.341,0.942,0.776
				c1.66-2.207,3.327-4.41,4.974-6.627C398.425,286.403,397.273,285.463,396.785,286.148z"/>
			<path style="fill:#272525;" d="M405.134,278.053c-1.63,1.628-3.043,3.427-4.634,5.082c-0.449,0.466,0.41,1.159,0.865,0.713
				c1.654-1.619,3.451-3.058,5.077-4.717C407.123,278.436,405.821,277.368,405.134,278.053z"/>
			<path style="fill:#272525;" d="M419.176,274.268c-2.435-0.013-4.87,0.031-7.305,0.069c-0.961,0.015-0.615,1.378,0.224,1.39
				c2.443,0.038,4.884,0.083,7.327,0.07C420.474,275.792,420.106,274.273,419.176,274.268z"/>
			<path style="fill:#272525;" d="M427.237,274.403c-0.106-0.752-1.285-0.796-1.243,0.04c0.211,4.273,0.625,8.555,1.113,12.806
				c0.101,0.879,1.529,0.932,1.455-0.047C428.239,282.931,427.836,278.644,427.237,274.403z"/>
			<path style="fill:#272525;" d="M434.809,296.637c-2.008-1.864-4.14-3.561-6.29-5.257c-0.679-0.536-1.357,0.326-0.753,0.914
				c1.964,1.913,3.926,3.811,6.039,5.561C434.688,298.588,435.636,297.405,434.809,296.637z"/>
			<path style="fill:#272525;" d="M448.285,293.897c-3.454,1.433-6.862,2.947-10.269,4.49c-0.525,0.238-0.142,1.032,0.364,0.844
				c3.508-1.304,6.995-2.629,10.459-4.045C449.666,294.849,449.034,293.586,448.285,293.897z"/>
			<path style="fill:#272525;" d="M457.894,288.491c-1.044,0.573-2.026,1.213-3.019,1.868c-0.666,0.441,0.146,1.397,0.786,1.049
				c1.049-0.57,2.078-1.136,3.078-1.79C459.458,289.149,458.583,288.112,457.894,288.491z"/>
			<path style="fill:#272525;" d="M481.8,287.684c-3.774-2-7.592-3.882-11.476-5.658c-0.745-0.341-1.068,0.655-0.417,1.026
				c3.721,2.12,7.488,4.128,11.325,6.029C482.222,289.57,482.709,288.166,481.8,287.684z"/>
			<path style="fill:#272525;" d="M495.422,289.777c-3.725,0.406-7.381,1.03-11.068,1.69c-0.749,0.134-0.299,1.321,0.366,1.249
				c3.732-0.408,7.426-0.846,11.121-1.509C496.698,291.054,496.182,289.694,495.422,289.777z"/>
			<path style="fill:#272525;" d="M500.949,274.272c-0.929,4.443-1.624,8.97-2.053,13.489c-0.055,0.585,0.999,1.09,1.171,0.407
				c1.112-4.445,1.977-8.986,2.586-13.526C502.787,273.638,501.175,273.192,500.949,274.272z"/>
			<path style="fill:#272525;" d="M508.334,265.707c-2.059,1.172-3.998,2.514-5.957,3.843c-0.69,0.468,0.15,1.439,0.816,1.088
				c2.11-1.111,4.221-2.195,6.239-3.467C510.367,266.581,509.226,265.198,508.334,265.707z"/>
			<path style="fill:#272525;" d="M521.723,263.87c-1.317,1.037-2.632,1.2-4.264,0.923c-0.801-0.136-0.868,0.817-0.288,1.165
				c1.844,1.107,4.058,0.732,5.68-0.585C523.721,264.666,522.562,263.208,521.723,263.87z"/>
			<path style="fill:#272525;" d="M536.115,245.072c-1.919,2.421-3.788,4.87-5.587,7.383c-1.596,2.23-3.588,4.448-4.565,7.029
				c-0.21,0.555,0.534,1.276,1.057,0.871c2.178-1.684,3.704-4.199,5.362-6.372c1.876-2.459,3.672-4.968,5.425-7.516
				C538.514,245.441,536.908,244.071,536.115,245.072z"/>
			<path style="fill:#272525;" d="M556.719,232.124c-4.662,1.56-9.452,3.049-13.925,5.101c-0.743,0.341-0.217,1.355,0.507,1.178
				c4.793-1.169,9.489-2.966,14.126-4.634C558.5,233.383,557.701,231.795,556.719,232.124z"/>
			<path style="fill:#272525;" d="M578.665,237.917c-3.984-1.478-7.187-3.876-9.282-7.63c-0.356-0.637-1.455-0.464-1.131,0.344
				c1.735,4.321,5.46,7.785,10.008,8.926C579.302,239.818,579.604,238.265,578.665,237.917z"/>
			<path style="fill:#272525;" d="M593.043,229.707c-3.856,1.814-7.673,3.663-11.398,5.735c-0.677,0.376,0.055,1.477,0.708,1.218
				c4.052-1.61,7.987-3.434,11.922-5.311C595.374,230.825,594.082,229.218,593.043,229.707z"/>
			<path style="fill:#272525;" d="M603.183,216.427c-1.916,2.384-3.725,4.818-5.484,7.319c-0.653,0.929,0.811,2.17,1.538,1.268
				c1.92-2.38,3.759-4.79,5.522-7.287C605.431,216.776,603.926,215.502,603.183,216.427z"/>
			<path style="fill:#272525;" d="M615.886,209.033c-1.91,0.797-3.742,1.683-5.565,2.661c-0.654,0.351,0.053,1.378,0.671,1.155
				c1.958-0.704,3.856-1.479,5.736-2.367C617.552,210.094,616.662,208.71,615.886,209.033z"/>
			<path style="fill:#272525;" d="M653.867,204.617c-7.307,0.853-14.593,1.88-21.902,2.717c-0.866,0.099-0.574,1.358,0.205,1.274
				c7.324-0.789,14.667-1.387,21.992-2.16C655.409,206.316,654.982,204.487,653.867,204.617z"/>
			<path style="fill:#272525;" d="M274.34,407.915c-3.583,2.25-7.549,4.478-10.645,7.381c-0.883,0.828,0.629,2.078,1.516,1.586
				c3.617-2.005,6.903-5.071,10.064-7.721C275.983,408.567,275.099,407.438,274.34,407.915z"/>
			<path style="fill:#272525;" d="M263.803,424.997c-0.123-0.782-1.428-0.843-1.314,0.042c0.919,7.116,1.751,14.25,2.823,21.344
				c0.161,1.064,1.946,1.142,1.784-0.058C266.129,439.198,264.921,432.102,263.803,424.997z"/>
			<path style="fill:#272525;" d="M289.835,435.038c-3.784-8.534-8.244-17.112-13.022-25.133c-0.371-0.622-1.41-0.204-1.109,0.515
				c3.572,8.505,7.844,17.126,12.412,25.141C288.663,436.517,290.372,436.246,289.835,435.038z"/>
			<path style="fill:#272525;" d="M290.582,459.746c-0.371-0.277-0.768-0.517-1.143-0.788c0.041-0.081,0.12-0.125,0.121-0.241
				c0.108-7.358-0.598-14.792-0.956-22.14c-0.026-0.535-1.043-0.705-1.037-0.096c0.078,7.112-0.146,14.319,0.334,21.42
				c-3.299-2.274-6.688-4.422-9.946-6.751c-0.648-0.463-1.365,0.38-0.711,0.863c4.077,3.014,7.887,6.396,12.026,9.325
				C290.467,462.184,291.785,460.645,290.582,459.746z"/>
			<path style="fill:#272525;" d="M350.527,422.344c-3.704,14.352-6.991,28.887-9.958,43.408c-0.197,0.967,1.405,1.396,1.656,0.36
				c3.482-14.358,6.681-28.861,9.426-43.378C351.761,422.155,350.691,421.71,350.527,422.344z"/>
			<path style="fill:#272525;" d="M383.853,459.634c0.016-0.176-0.006-0.369-0.157-0.583c-0.023-0.032-0.048-0.064-0.071-0.097
				c-0.153-0.459-0.31-0.923-0.462-1.381c-0.108-0.326-0.494-0.414-0.782-0.322c-8.637-12.071-18.131-23.764-27.737-35.048
				c-0.438-0.514-1.262-0.057-0.836,0.544c8.994,12.677,18.445,25.362,28.55,37.175c0.093,0.109,0.21,0.125,0.318,0.183
				c2.795,10.991,5.555,22.199,9.333,32.865c0.344,0.973,2.177,0.87,1.899-0.31C391.293,481.535,387.487,470.497,383.853,459.634z"
				/>
			<path style="fill:#272525;" d="M358.287,509.144c-4.74-10.327-9.904-20.478-14.813-30.727c-0.275-0.575-1.252-0.362-0.957,0.291
				c4.664,10.315,9.089,20.762,13.921,30.998C356.965,510.823,358.863,510.399,358.287,509.144z"/>
			<path style="fill:#272525;" d="M390.547,500.143c-10.436,4.363-20.562,10.104-30.469,15.544c-0.569,0.313,0.05,1.27,0.598,1.03
				c10.375-4.556,21.126-9.071,30.958-14.704C392.66,501.425,391.547,499.725,390.547,500.143z"/>
			<path style="fill:#272525;" d="M368.391,591.599c-7.291-13.18-15.895-25.83-24.174-38.407c-0.478-0.726-1.487-0.088-1.039,0.678
				c7.558,12.913,15.053,26.188,23.58,38.487C367.341,593.2,368.963,592.633,368.391,591.599z"/>
			<path style="fill:#272525;" d="M408.231,541.769c-4.052-7.108-8.437-14.037-12.801-20.956c-0.232-0.368-0.919-0.595-1.285-0.295
				c-15.042,12.298-29.512,25.353-43.983,38.317c-0.47,0.421,0.377,1.284,0.852,0.891c10.449-8.647,20.814-17.391,31.116-26.213
				c3.152-2.7,8.07-9.416,12.189-8.649c4.154,0.773,9.983,14.225,12.218,17.692C407.121,543.461,408.831,542.821,408.231,541.769z"
				/>
			<path style="fill:#272525;" d="M402.685,541.798c-4.896,10.234-10.063,20.342-14.864,30.622c-0.527,1.129,1.422,2.159,1.981,0.96
				c4.797-10.287,9.227-20.745,13.928-31.076C404.003,541.705,402.985,541.169,402.685,541.798z"/>
			<path style="fill:#272525;" d="M358.023,553.803c-5.269-1.328-11.264-2.492-16.702-2.639c-1.486-0.04-1.112,2.049,0.07,2.313
				c5.214,1.164,11.341,1.527,16.668,1.517C358.834,554.992,358.622,553.954,358.023,553.803z"/>
			<path style="fill:#272525;" d="M388.52,568.692c-0.756,6.777-2.185,13.683-2.296,20.503c-0.016,1.02,1.566,1.553,1.774,0.386
				c1.197-6.74,1.09-13.824,1.633-20.646C389.683,568.284,388.601,567.968,388.52,568.692z"/>
			<path style="fill:#272525;" d="M378.157,590.915c-5.538,4.037-11.143,7.997-16.564,12.191c-0.759,0.588,0.224,1.824,0.964,1.286
				c5.544-4.03,10.915-8.302,16.341-12.488C379.484,591.453,378.726,590.5,378.157,590.915z"/>
			<path style="fill:#272525;" d="M795.322,251.052c-10.687,5.66-21.094,11.866-31.477,18.066c-0.619-0.529-1.764-0.227-1.282,0.662
				l0.043,0.079c-0.472,0.304-0.008,0.918,0.474,0.872c8.726,16.115,17.421,32.286,26.554,48.171
				c0.621,1.08,2.596,0.688,1.914-0.582c-8.717-16.242-17.917-32.258-27.046-48.272c10.685-5.726,21.392-11.465,31.77-17.731
				C797.094,251.822,796.099,250.641,795.322,251.052z"/>
			<path style="fill:#272525;" d="M829.041,276.586c-10.064-9.142-20.615-17.778-30.953-26.608
				c-0.591-0.504-1.264,0.319-0.684,0.829c10.207,8.986,20.253,18.209,30.73,26.879C828.93,278.345,829.798,277.273,829.041,276.586
				z"/>
			<path style="fill:#272525;" d="M860.263,276.735c-0.117-0.574-1.085-0.635-0.985,0.032c0.07,0.464,0.138,0.932,0.207,1.396
				c-9.413-2.149-19.048-3.884-28.601-5.271c-0.66-0.096-0.675,0.781-0.096,0.927c9.488,2.388,19.19,4.494,28.841,6.106
				c0.05,0.008,0.068-0.026,0.114-0.024c1.573,10.631,3.138,21.359,5.435,31.836c0.193,0.881,1.665,0.992,1.525-0.049
				C865.136,299.989,862.622,288.301,860.263,276.735z"/>
			<path style="fill:#272525;" d="M865.821,317.158c-18.59,2.193-37.186,5.545-55.63,8.754c-0.838,0.146-0.341,1.506,0.413,1.408
				c18.581-2.436,37.362-4.779,55.783-8.232C867.54,318.871,866.849,317.036,865.821,317.158z"/>
			<path style="fill:#272525;" d="M869.341,309.312c-0.693,2.804-1.364,5.611-2.006,8.427c-0.151,0.661,1.09,1.165,1.285,0.446
				c0.741-2.722,1.454-5.448,2.146-8.183C870.983,309.141,869.565,308.405,869.341,309.312z"/>
			<path style="fill:#272525;" d="M278.048,621.48c-10.332-17.536-21.03-34.947-32.103-52.027c0.128,0.03,0.266,0.018,0.395-0.075
				c7.883-5.676,15.958-11.206,23.478-17.36c0.715-0.585-0.197-1.753-0.935-1.246c-8.013,5.496-15.583,11.699-23.24,17.677
				c-0.161,0.126-0.192,0.288-0.172,0.45c-0.765-0.685-1.969,0.136-1.349,1.195c10.354,17.701,21.185,35.213,32.293,52.451
				C277.151,623.689,278.757,622.683,278.048,621.48z"/>
			<path style="fill:#272525;" d="M331.265,632.969c-5.601-11.474-11.473-22.82-17.247-34.208c0.717-0.008,1.435,0.002,2.153-0.012
				c0.882-0.017,0.562-1.259-0.205-1.274c-6.014-0.116-12.031-0.026-18.046,0.065c-9.007-14.704-18.972-28.904-28.572-43.223
				c-0.402-0.599-1.278-0.066-0.872,0.569c9.09,14.256,17.942,28.78,27.58,42.68c-1.142,0.017-2.284,0.033-3.426,0.047
				c-0.688,0.008-0.442,0.989,0.16,0.996c1.337,0.017,2.674,0.036,4.012,0.056c0.094,0.135,0.182,0.273,0.276,0.407
				c0.506,0.721,1.382,0.306,1.37-0.384c4.828,0.073,9.657,0.116,14.485,0.077c5.687,11.532,11.277,23.121,17.137,34.566
				C330.43,634.037,331.658,633.773,331.265,632.969z"/>
			<path style="fill:#272525;" d="M324.25,641.434c-0.744,0.83-1.489,1.66-2.233,2.49c-0.007-0.002-0.008-0.009-0.015-0.01
				c-9.566-2.451-19.528-3.669-29.237-5.466c-0.765-0.141-0.799,0.938-0.112,1.086c9.674,2.078,19.365,4.798,29.16,6.213
				c0.775,0.112,1.046-0.445,0.943-0.982c0.883-0.793,1.766-1.586,2.648-2.378C326.018,641.834,324.844,640.772,324.25,641.434z"/>
			<path style="fill:#272525;" d="M303,531.197c1.008-16.054,1.894-32.13,2.42-48.208c0.737-0.415,1.489-0.804,2.222-1.226
				c0.516-0.298-0.046-1.167-0.549-0.945c-0.543,0.239-1.071,0.511-1.612,0.754c0.001-0.032,0.003-0.064,0.004-0.096
				c0.021-0.682-1.117-1.035-1.182-0.257c-0.026,0.311-0.042,0.625-0.068,0.936c-9.058,4.105-17.943,8.59-26.947,12.812
				c-0.485,0.228-0.635,1.051-0.39,1.49c8.71,15.651,17.198,31.516,26.526,46.808c0.699,1.146,2.787,0.354,2.097-0.974
				c-6.311-12.143-13.31-23.948-20.056-35.853c-3.914-6.906-5.289-9.937,2.478-14.038c5.411-2.858,10.83-5.715,16.179-8.692
				c-1.276,15.669-2.219,31.375-3.036,47.073C301.026,531.9,302.922,532.445,303,531.197z"/>
			<path style="fill:#272525;" d="M222.652,478.578c-19.561,2.78-39.234,5.157-58.702,8.542c-1.218,0.212-0.495,2.185,0.599,2.044
				c19.505-2.508,38.918-6.039,58.335-9.149C223.847,479.861,223.53,478.453,222.652,478.578z"/>
			<path style="fill:#272525;" d="M211.986,552.859c-10.374-6.869-21.729-12.599-31.772-19.913
				c-12.955-9.434-16.264-28.352-21.533-42.982c-0.21-0.582-1.129-0.362-0.913,0.278c2.595,7.705,5.191,15.41,7.787,23.115
				c1.549,4.6,2.798,11.839,5.646,15.831c2.814,3.945,14.235,9.084,18.286,11.682c7.146,4.583,14.269,9.217,21.552,13.58
				C212.051,555.057,212.954,553.5,211.986,552.859z"/>
			<path style="fill:#272525;" d="M222.144,478.523c-0.011-0.637-1.104-0.97-1.111-0.242c-0.131,12.623-0.477,25.248-0.259,37.872
				c0.018,1.085,1.879,1.651,1.892,0.412C222.798,503.883,222.363,491.203,222.144,478.523z"/>
			<path style="fill:#272525;" d="M216.535,515.757c-6.91,1.385-13.938,3.203-20.645,5.362c-1.107,0.356-0.723,1.623,0.1,2.045
				c1.76,7.716,3.625,15.412,5.626,23.069c0.33,1.263,2.566,1.341,2.183-0.07c-2.091-7.695-4.321-15.354-6.648-22.98
				c6.684-1.688,13.457-3.795,19.901-6.224C217.852,516.655,217.251,515.613,216.535,515.757z"/>
			<path style="fill:#272525;" d="M181.683,344.184c-0.154-1.197-2.148-1.278-1.994,0.065c1.566,13.678,3.278,27.358,5.35,40.97
				c0.116,0.757,1.345,0.815,1.267-0.041C185.057,371.487,183.439,357.818,181.683,344.184z"/>
			<path style="fill:#272525;" d="M224.614,339.767c-1.243-1.707-2.516-3.395-3.768-5.095c0.234-0.41,0.465-0.821,0.699-1.231
				c0.243-0.426-0.565-0.967-0.83-0.533c-0.176,0.29-0.355,0.578-0.532,0.868c-4.979-6.747-10.019-13.457-15.22-20.025
				c-0.306-0.388-0.908-0.529-1.267-0.126c-7.311,8.216-14.908,16.189-22.383,24.257c-0.447,0.483,0.432,1.206,0.885,0.729
				c3.41-3.595,6.821-7.19,10.231-10.784c2.275-2.398,8.425-10.913,11.692-10.69c3.387,0.231,7.191,7.976,9.136,10.621
				c1.926,2.619,3.879,5.218,5.819,7.826c-11.049,18.086-22.373,36.096-32.717,54.586c-0.479,0.856,1.122,1.931,1.659,1.066
				c11.115-17.887,21.346-36.389,31.768-54.697c1.067,1.429,2.113,2.875,3.193,4.295
				C223.79,341.897,225.453,340.919,224.614,339.767z"/>
			<path style="fill:#272525;" d="M843.382,167.583c-7.008,4.837-13.928,9.848-20.669,15.052c-0.667,0.515,0.174,1.57,0.846,1.128
				c7.112-4.691,14.099-9.613,20.951-14.676C845.415,168.418,844.262,166.976,843.382,167.583z"/>
			<path style="fill:#272525;" d="M869.549,180.517c-0.102-0.919-1.621-0.978-1.525,0.049c0.231,2.47,0.007,4.725-0.55,6.766
				c-4.594-7.495-9.32-14.926-14.173-22.254c-0.402-0.607-1.25-0.073-0.872,0.569c4.651,7.898,9.459,15.723,14.397,23.445
				c-5.281,13.214-26.006,15.32-32.116-0.741c-0.241-0.633-1.24-0.396-1.001,0.304c2.997,8.759,12.276,15.083,21.685,13.087
				C864.897,199.725,870.571,189.704,869.549,180.517z"/>
			<path style="fill:#272525;" d="M758.376,337.007c-7.814-8.012-15.785-15.921-23.985-23.537c-0.615-0.571-1.633,0.259-1.024,0.914
				c7.679,8.267,15.648,16.302,23.725,24.18C758.146,339.592,759.371,338.027,758.376,337.007z"/>
			<path style="fill:#272525;" d="M732.435,314.36c-0.109-0.567-1.078-0.612-0.962,0.031c2.313,12.798,4.177,25.683,6.753,38.433
				c0.211,1.044,1.988,1.142,1.784-0.058C737.811,339.904,734.898,327.172,732.435,314.36z"/>
			<path style="fill:#272525;" d="M772.692,363.636c-9.738-3.347-19.794-6.059-29.755-8.658c-0.916-0.239-0.89,1.033-0.133,1.289
				c9.779,3.319,19.697,6.611,29.701,9.179C773.796,365.777,773.749,363.999,772.692,363.636z"/>
			<path style="fill:#272525;" d="M775.75,361.708c-5.763-10.097-12.041-19.922-18.215-29.771c-0.308-0.491-1.227-0.141-0.907,0.421
				c5.744,10.077,11.414,20.238,17.57,30.07C774.724,363.269,776.299,362.669,775.75,361.708z"/>
			<path style="fill:#272525;" d="M888.175,405.315c-0.551,0.247-1.079,0.547-1.627,0.803c-3.219-12.967-7.419-25.794-10.078-38.886
				c-0.133-0.652-0.752-1.05-1.396-0.907c-8.53,1.891-17.001,4.232-25.411,6.601c-0.726,0.204-0.177,1.197,0.459,1.066
				c0.496-0.101,0.988-0.219,1.484-0.322c-0.055,0.157-0.056,0.339,0.063,0.539c5.904,9.926,11.747,19.92,17.969,29.651
				c0.517,0.809,1.644,0.098,1.151-0.751c-5.804-9.984-12.014-19.751-18.136-29.542c-0.035-0.057-0.088-0.057-0.13-0.097
				c3.991-0.837,7.976-1.703,11.955-2.593c2.082-0.466,5.135-1.911,7.154-1.612c3.394,0.503,4.183,3.644,5.302,7.001
				c3.232,9.694,4.977,20.054,7.646,29.924c0.078,0.287,0.267,0.503,0.499,0.651c-5.001,2.417-9.9,5.078-14.8,7.672
				c-0.755,0.4,0.146,1.458,0.846,1.128c6.011-2.835,12.164-5.504,17.978-8.731C889.982,406.423,889.021,404.936,888.175,405.315z"
				/>
			<path style="fill:#272525;" d="M892.25,521.875c-4.746-10.991-10.07-21.763-15.093-32.631c-0.287-0.621-1.333-0.386-1.022,0.311
				c4.877,10.912,9.485,21.986,14.636,32.77C891.195,523.212,892.69,522.894,892.25,521.875z"/>
			<path style="fill:#272525;" d="M891.801,486.838c-0.331-0.375-0.868-0.522-1.248-0.124c-2.708,2.832-5.464,5.618-8.205,8.417
				c-0.455,0.464,0.404,1.148,0.865,0.713c1.809-1.707,5.375-6.66,7.789-6.482c2.783,0.204,5.147,6.796,6.133,9.297
				c2.932,7.443,3.371,15.322,1.85,23.125c-0.264,1.356,2.06,2.009,2.341,0.51C903.714,509.562,900.415,496.583,891.801,486.838z"/>
			<path style="fill:#272525;" d="M317.144,703.307c-3.081,14.832-6.437,29.638-9.167,44.538c-0.185,1.009,1.489,1.467,1.726,0.376
				c3.212-14.807,5.809-29.768,8.67-44.646C318.511,702.86,317.306,702.526,317.144,703.307z"/>
			<path style="fill:#272525;" d="M340.423,728.809c-8.133,6.766-15.924,14.012-23.701,21.183c-0.512,0.471,0.416,1.414,0.937,0.98
				c8.13-6.78,16.335-13.568,24.11-20.755C342.503,729.538,341.172,728.186,340.423,728.809z"/>
			<path style="fill:#272525;" d="M330.452,694.299c-0.502-1.269-2.582-0.782-2.023,0.615c3.966,9.926,7.951,19.831,12.211,29.637
				c0.338,0.778,1.581,0.501,1.261-0.384C338.273,714.134,334.376,704.218,330.452,694.299z"/>
			<path style="fill:#272525;" d="M653.96,284.056c-0.201-0.59-1.08-0.956-1.61-0.58c-12.283,8.696-24.751,17.135-37.16,25.653
				c0.158-2.293,0.332-4.585,0.489-6.879c0.051-0.746-1.206-1.11-1.277-0.278c-1.103,12.863-2.173,25.728-3.198,38.598
				c-0.081,1.014,1.644,1.495,1.727,0.376c0.754-10.15,1.459-20.303,2.163-30.457c6.372-4.196,12.745-8.391,19.118-12.588
				c4.248-2.799,14.237-12.585,18.985-9.597c3.1,1.951,5.881,18.092,7.13,21.933c2.377,7.312,4.769,14.619,7.256,21.894
				c0.426,1.245,2.362,0.772,1.936-0.588C664.544,315.654,659.336,299.815,653.96,284.056z"/>
			<path style="fill:#272525;" d="M665.082,348.237c-14.892,2.662-29.695,5.842-44.47,9.088c-0.732,0.161-0.178,1.176,0.459,1.067
				c14.968-2.56,29.939-5.186,44.795-8.332C667.11,349.796,666.178,348.041,665.082,348.237z"/>
			<path style="fill:#272525;" d="M672.509,322.89c-0.045-1.021-1.927-1.351-1.979-0.184c-0.399,8.924-0.102,18.073,0.454,26.989
				c0.035,0.557,1.043,0.742,1.083,0.101C672.631,340.909,672.899,331.787,672.509,322.89z"/>
			<path style="fill:#272525;" d="M608.961,345.881c-1.963-0.034-3.995-0.222-5.948-0.012c-0.978,0.105-0.893,1.55,0.051,1.648
				c2.035,0.212,4.118,0.044,6.162,0.009C610.364,347.507,609.954,345.898,608.961,345.881z"/>
			<path style="fill:#272525;" d="M738.574,131.691c-7.341,11.728-14.317,23.689-21.254,35.66c-0.382,0.658,0.866,1.493,1.286,0.826
				c7.36-11.71,14.69-23.452,21.648-35.406C740.754,131.911,739.12,130.817,738.574,131.691z"/>
			<path style="fill:#272525;" d="M778.942,146.566c-12.173-6.987-25.406-12.938-38.284-18.503
				c-0.734-0.317-1.053,0.645-0.408,1.006c11.328,6.349,23.103,12.7,35.05,17.929c-0.113,0.043-0.221,0.109-0.284,0.258
				c-5.362,12.701-10.316,25.587-15.242,38.463c-0.42,1.098,1.419,2.07,1.87,0.906c4.98-12.88,9.944-25.787,14.485-38.83
				c0.055-0.158,0.03-0.31-0.035-0.443c0.715,0.31,1.424,0.658,2.141,0.959C779.515,148.85,780.052,147.204,778.942,146.566z"/>
			<path style="fill:#272525;" d="M754.739,195.029c-12.468-2.495-25.119-4.618-37.729-6.286
				c5.287-10.454,10.075-21.173,14.971-31.813c0.526-1.145-1.455-2.192-2.003-0.971c-4.886,10.882-9.918,21.728-14.379,32.792
				c-0.727,0.356-0.649,1.579,0.353,1.763c12.779,2.345,25.756,4.239,38.664,5.713C755.459,196.324,755.509,195.183,754.739,195.029
				z"/>
			<path style="fill:#272525;" d="M771.651,182.371c-5.036,4.87-9.946,9.847-14.797,14.901c-0.552,0.575,0.494,1.399,1.058,0.872
				c5.127-4.795,10.178-9.649,15.125-14.631C773.764,182.78,772.386,181.661,771.651,182.371z"/>
			<path style="fill:#272525;" d="M479.411,368.994c-0.033-0.877-1.7-1.153-1.696-0.158c0.049,12.251,0.186,24.515,0.644,36.758
				c0.038,1.024,1.985,1.345,1.979,0.184C480.275,393.516,479.883,381.247,479.411,368.994z"/>
			<path style="fill:#272525;" d="M509.719,366.537c-0.035-0.152-0.129-0.264-0.24-0.351c0.658-0.276,0.291-1.36-0.498-1.419
				c-8.859-0.667-17.878-0.612-26.76-0.57c-0.827,0.004-0.507,1.14,0.19,1.182c8.69,0.521,17.512,1.065,26.223,0.919
				c-0.035,0.082-0.087,0.151-0.066,0.277c2.13,12.224,4.608,24.409,7.1,36.564c0.189,0.923,1.776,0.997,1.572-0.051
				C514.862,390.887,512.457,378.663,509.719,366.537z"/>
			<path style="fill:#272525;" d="M508.919,405.028c-8.954,1.628-17.941,3.078-26.904,4.652c-0.999,0.175-0.273,1.661,0.641,1.489
				c8.908-1.675,17.795-3.475,26.713-5.097C510.073,405.944,509.556,404.912,508.919,405.028z"/>
			<path style="fill:#272525;" d="M629.163,593.191c-0.053-0.726-1.239-0.765-1.197,0.039c0.691,13.006,1.387,26.006,2.296,38.999
				c0.063,0.897,1.533,0.946,1.478-0.048C631.026,619.173,630.097,606.185,629.163,593.191z"/>
			<path style="fill:#272525;" d="M650.378,578.443c-5.744,3.983-11.352,8.149-16.984,12.288c-0.513,0.377,0.142,1.197,0.638,0.851
				c5.733-4.002,11.482-7.972,17.103-12.13C651.742,579.003,650.968,578.035,650.378,578.443z"/>
			<path style="fill:#272525;" d="M653.487,578.57c-0.166-0.628-1.276-0.697-1.103,0.035c2.311,9.787,4.173,19.84,7.123,29.453
				c0.249,0.812,1.721,0.701,1.537-0.25C659.142,597.972,656.044,588.258,653.487,578.57z"/>
			<path style="fill:#272525;" d="M652.503,617.226c-5.794,5.596-11.584,11.193-17.33,16.838c-0.737,0.724,0.668,1.906,1.404,1.157
				c5.63-5.73,11.211-11.504,16.791-17.282C653.819,617.473,652.961,616.784,652.503,617.226z"/>
			<path style="fill:#272525;" d="M456.125,658.994c-0.182-0.667-1.351-0.78-1.197,0.039c2.005,10.619,4.496,21.196,7.065,31.691
				c0.237,0.971,1.934,1.073,1.689-0.054C461.387,680.078,458.978,669.451,456.125,658.994z"/>
			<path style="fill:#272525;" d="M460.633,691.819c-4.817-1.176-9.631-2.363-14.456-3.504c-2.17-0.513-5.395-0.58-7.232-1.711
				c-2.709-1.669-2.076-1.475-0.728-4.959c3.584-9.258,9.211-18.018,13.426-27.026c0.533-1.138-1.368-2.119-1.98-0.96
				c-5.643,10.662-10.894,21.555-16.117,32.428c-0.29,0.605,0.281,1.319,0.858,1.44c8.701,1.819,17.403,3.62,26.117,5.377
				C461.286,693.059,461.311,691.984,460.633,691.819z"/>
			<path style="fill:#272525;" d="M410.736,679.284c-0.108-0.198-0.222-0.393-0.33-0.591c3.073-14.689-1.573-29.959-11.405-41.709
				c-0.324-0.388-0.936-0.558-1.312-0.13c-2.052,2.342-4.108,4.681-6.164,7.02c-0.44,0.5,0.426,1.191,0.885,0.729
				c3.459-3.48,5.106-6.283,8.965-2.388c3.717,3.75,6.095,11.716,7.125,16.533c1.238,5.787,1.222,11.465,0.282,17.046
				c-5.763-10.346-11.967-20.474-17.943-30.692c-0.32-0.547-1.327-0.156-0.988,0.459c6.091,11.056,11.954,22.288,18.344,33.176
				c-0.682,2.986-1.595,5.947-2.759,8.875c-0.398,1.002,1.227,1.868,1.714,0.831c1.221-2.606,2.131-5.265,2.811-7.946
				C410.562,680.425,411.104,679.961,410.736,679.284z"/>
			<path style="fill:#272525;" d="M383.439,704.967c-0.268-0.667-1.339-0.419-1.066,0.324c5.421,14.705,10.72,29.482,16.5,44.05
				c0.476,1.2,2.412,0.751,1.914-0.582C395.29,734.059,389.295,719.528,383.439,704.967z"/>
			<path style="fill:#272525;" d="M428.813,747.041c-8.579-13.343-17.479-26.491-26.207-39.738
				c-0.632-0.959-2.047-0.104-1.392,0.908c6.463,9.992,12.966,19.96,19.391,29.977c3.643,5.68,5.748,7.757,0.165,12.205
				c-4.663,3.716-10.947,6.263-16.058,9.406c-0.761,0.468,0.159,1.532,0.875,1.167c7.776-3.956,15.392-8.233,23.05-12.411
				C429.203,748.245,429.1,747.488,428.813,747.041z"/>
			<path style="fill:#272525;" d="M561.842,863.489c-0.478-2.387-1.017-4.759-1.615-7.118c-0.317-1.319-1.565-2.079-2.695-2.124
				c-14.162-29.642-27.665-60.079-43.648-88.765c4.847,1.869,9.751,3.515,14.692,4.878c3.172,0.876,3.208-3.689,0.47-4.547
				c-6.584-2.063-12.908-4.457-19.011-7.144c-0.412-0.712-0.801-1.442-1.216-2.152c-0.58-0.992-2.162-0.318-1.734,0.805l0.001,0.002
				c-26.844-12.407-49.167-30.853-68.516-54.497c-0.506-0.618-1.398-0.087-0.965,0.629c16.253,26.914,42.792,48.081,72.059,60.325
				c13.64,34.22,31.319,67.317,47.073,100.538C557.866,866.698,562.552,866.817,561.842,863.489z"/>
		</g>
	</g>
</g>
</svg>
